<?xml version="1.0" standalone="no"?>
<!DOCTYPE svg PUBLIC "-//W3C//DTD SVG 20010904//EN"
 "http://www.w3.org/TR/2001/REC-SVG-20010904/DTD/svg10.dtd">
<svg version="1.0" xmlns="http://www.w3.org/2000/svg"
 width="700.000000pt" height="700.000000pt" viewBox="0 0 700.000000 700.000000"
 preserveAspectRatio="xMidYMid meet">
<metadata>
Created by potrace 1.14, written by Peter Selinger 2001-2017
</metadata>
<g transform="translate(0.000000,700.000000) scale(0.100000,-0.100000)"
fill="#000000" stroke="none">
<path d="M4718 6636 c-1 -2 -30 -6 -63 -10 -138 -14 -261 -67 -347 -150 -60
-59 -141 -152 -147 -169 -2 -7 -10 -17 -17 -24 -20 -20 -54 -120 -54 -158 0
-50 64 -95 96 -67 5 5 50 26 99 46 50 20 99 41 110 46 21 9 62 22 81 26 6 1
22 5 35 8 13 4 -4 -8 -38 -26 -35 -18 -89 -55 -121 -82 l-58 -48 -107 -3 -108
-3 -69 52 c-149 112 -417 221 -615 250 -56 9 -95 15 -130 22 -56 10 -320 12
-370 3 -27 -5 -63 -12 -80 -14 -16 -3 -69 -17 -116 -31 -64 -19 -90 -33 -99
-49 -19 -35 1 -55 101 -104 144 -70 261 -167 359 -296 37 -49 95 -153 88 -160
-75 -68 -145 -115 -191 -125 -73 -17 -243 -70 -296 -92 -24 -10 -47 -15 -50
-11 -15 21 -100 82 -141 101 -61 28 -121 39 -227 41 l-53 1 44 83 c57 107 86
208 93 317 9 136 -26 245 -118 367 -71 94 -138 141 -241 169 -49 13 -164 12
-233 -1 -96 -19 -175 -76 -215 -156 -31 -59 -30 -119 2 -200 63 -157 55 -347
-21 -531 -18 -42 -71 -136 -118 -209 -180 -279 -268 -500 -298 -747 -4 -29
-13 -69 -21 -88 -8 -19 -25 -75 -39 -124 -17 -67 -36 -109 -73 -164 -73 -109
-92 -176 -88 -300 2 -66 12 -135 29 -202 46 -176 140 -423 213 -559 28 -52 33
-73 38 -162 4 -57 8 -108 11 -115 2 -7 6 -36 9 -65 24 -213 118 -503 240 -739
160 -306 396 -589 656 -783 41 -31 77 -58 80 -62 17 -20 225 -140 325 -189
222 -107 487 -189 695 -216 14 -2 52 -7 85 -11 76 -10 429 -10 515 0 163 19
359 63 510 116 780 269 1374 940 1538 1736 28 133 32 162 47 310 6 62 7 304 0
363 -3 28 -7 73 -10 100 -14 144 -55 320 -110 482 -20 58 -37 113 -38 123 -2
14 11 24 48 38 121 46 267 135 355 218 40 37 42 42 37 81 -12 95 -163 409
-282 590 -80 121 -195 266 -299 375 -72 76 -75 82 -69 115 4 19 6 65 6 102
l-1 67 25 -12 c24 -11 29 -8 77 44 175 188 171 465 -10 609 -55 44 -160 99
-182 95 -9 -2 -22 -4 -27 -4 -36 -3 -185 -187 -186 -231 -1 -3 -5 -10 -11 -17
-5 -7 -12 -38 -15 -70 -7 -80 10 -100 97 -108 82 -9 122 -25 147 -61 22 -32
65 -144 55 -144 -4 1 -22 22 -41 48 -40 57 -89 94 -155 116 -50 17 -133 19
-173 5 -18 -7 -26 -2 -43 26 -12 19 -42 53 -68 76 l-47 41 52 -26 c62 -31 75
-32 97 -7 44 48 71 258 46 353 -26 95 -34 104 -124 132 -59 19 -110 28 -183
31 -56 2 -103 2 -105 1z"/>
</g>
</svg>
